<svg xmlns="http://www.w3.org/2000/svg" xmlns:xlink="http://www.w3.org/1999/xlink" viewBox="0 0 178.32 29.66"><defs><style>.cls-1{fill:none;}.cls-2{clip-path:url(#clip-path);}.cls-3{fill:#273b7d;}.cls-4{fill:#499fdd;}.cls-5{clip-path:url(#clip-path-4);}</style><clipPath id="clip-path" transform="translate(0 -0.6)"><rect class="cls-1" width="178.36" height="30.26"/></clipPath><clipPath id="clip-path-4" transform="translate(0 -0.6)"><rect class="cls-1" y="0.6" width="178.32" height="29.63"/></clipPath></defs><g id="Layer_2" data-name="Layer 2"><g id="Booking_logo" data-name="Booking logo"><g class="cls-2"><g class="cls-2"><path class="cls-3" d="M69.94,3.31a2.71,2.71,0,1,1,5.42,0,2.71,2.71,0,0,1-5.42,0" transform="translate(0 -0.6)"/><path class="cls-4" d="M112.71,21.39a2.71,2.71,0,1,1,2.7,2.71,2.71,2.71,0,0,1-2.7-2.71" transform="translate(0 -0.6)"/><path class="cls-3" d="M25.46,20.21c-2.33,0-3.95-1.85-3.95-4.5s1.62-4.5,3.95-4.5,4,1.85,4,4.5S27.85,20.21,25.46,20.21Zm0-13a8.22,8.22,0,0,0-8.52,8.46,8.22,8.22,0,0,0,8.52,8.46A8.23,8.23,0,0,0,34,15.71a8.23,8.23,0,0,0-8.56-8.46m39.23,8.88a4.15,4.15,0,0,0-.64-.91l-.15-.15.16-.16a8.14,8.14,0,0,0,.68-.85L69.1,7.59H63.8l-3.27,5.06a1.28,1.28,0,0,1-1.12.41h-.74V3.48c0-1.92-1.2-2.18-2.49-2.18H54V23.92h4.69V17.13h.44c.53,0,.89.07,1.06.36l2.59,4.88a2.6,2.6,0,0,0,2.79,1.55h3.6l-2.68-4.43L64.7,16.13M87.45,7.21a6.39,6.39,0,0,0-4.76,2l-.28.29-.1-.39a2.17,2.17,0,0,0-2.37-1.49h-2.1V23.91h4.66V16.38a6.2,6.2,0,0,1,.29-1.95,3.82,3.82,0,0,1,3.77-2.86c1.45,0,2,.76,2,2.75v7.11a2.16,2.16,0,0,0,2.48,2.48h2.21V13.52c0-4.12-2-6.3-5.83-6.3m-14.74.37H70.5l0,12.62v3.71h4.63V10.07a2.17,2.17,0,0,0-2.45-2.48m-29,12.62c-2.33,0-4-1.85-4-4.5s1.63-4.5,4-4.5,4,1.85,4,4.5-1.61,4.5-4,4.5Zm0-13a8.22,8.22,0,0,0-8.53,8.46,8.22,8.22,0,0,0,8.53,8.46,8.24,8.24,0,0,0,8.56-8.46,8.24,8.24,0,0,0-8.56-8.46" transform="translate(0 -0.6)"/></g></g><g class="cls-2"><g class="cls-5"><g class="cls-2"><path class="cls-4" d="M143.55,20.21c-2.34,0-4-1.85-4-4.5s1.62-4.5,4-4.5,4,1.85,4,4.5S145.93,20.21,143.55,20.21Zm0-13A8.21,8.21,0,0,0,135,15.71a8.54,8.54,0,0,0,17.08,0,8.23,8.23,0,0,0-8.55-8.46" transform="translate(0 -0.6)"/><path class="cls-3" d="M103.09,19.49c-2.54,0-3.45-2.22-3.45-4.3,0-.92.23-3.9,3.21-3.9,1.48,0,3.45.42,3.45,4.05C106.3,18.77,104.55,19.49,103.09,19.49Zm5.62-11.95a2,2,0,0,0-1.9,1l-.13.25-.21-.19a6.36,6.36,0,0,0-4.29-1.42c-4.35,0-7.29,3.27-7.29,8.13s3,8.26,7.38,8.26a5.75,5.75,0,0,0,3.58-1.05l.36-.27v.46c0,2.18-1.41,3.38-4,3.38a9.29,9.29,0,0,1-3.13-.58,1.39,1.39,0,0,0-2,.94l-.37.92-.52,1.33.32.18a12.85,12.85,0,0,0,5.7,1.38c4,0,8.59-2,8.59-7.74l0-15h-2.17" transform="translate(0 -0.6)"/></g></g></g><g class="cls-2"><g class="cls-2"><path class="cls-3" d="M8.13,20H4.34V15.49c0-1,.37-1.47,1.2-1.59H8.13a2.84,2.84,0,0,1,3,3,2.81,2.81,0,0,1-3,3.07ZM4.34,7.8V6.61c0-1,.44-1.54,1.41-1.6H7.69a2.44,2.44,0,0,1,2.65,2.66,2.52,2.52,0,0,1-2.59,2.75H4.34ZM13,12.32l-.68-.38.6-.51a5.51,5.51,0,0,0,1.86-4.27c0-3.55-2.76-5.85-7-5.85H2.29A2.38,2.38,0,0,0,0,3.66V23.84H7.81c4.74,0,7.81-2.59,7.81-6.59A5.49,5.49,0,0,0,13,12.32" transform="translate(0 -0.6)"/><path class="cls-4" d="M172.9,7.27a6.43,6.43,0,0,0-5,2.42l-.34.43-.26-.48a4.64,4.64,0,0,0-4.41-2.37,5.92,5.92,0,0,0-4.29,1.92l-.44.48L158,9a2.08,2.08,0,0,0-2.27-1.4h-2l0,16.27h4.45V16.73a7.83,7.83,0,0,1,.23-1.9c.43-1.74,1.59-3.61,3.55-3.42,1.21.12,1.8,1.05,1.8,2.85v9.65h4.48V16.73a6.46,6.46,0,0,1,.25-2c.36-1.65,1.58-3.35,3.47-3.35,1.37,0,1.88.77,1.88,2.85v7.27c0,1.64.73,2.38,2.37,2.38h2.09V13.52c0-4.15-1.83-6.25-5.42-6.25m-40.46,11a6.82,6.82,0,0,1-4.44,2,4.34,4.34,0,0,1-4.61-4.55,4.3,4.3,0,0,1,4.37-4.61c.83,0,1.78.3,1.93.8l0,.09a1.64,1.64,0,0,0,1.59,1.2h2.43V11.1c0-2.81-3.57-3.83-6-3.83-5.14,0-8.87,3.58-8.87,8.51s3.68,8.5,8.77,8.5a9.21,9.21,0,0,0,6.84-2.93l.13-.16L132.7,18l-.26.27" transform="translate(0 -0.6)"/></g></g></g></g></svg>