<svg xmlns="http://www.w3.org/2000/svg" viewBox="0 0 17.96 17.95"><defs><style>.cls-1{fill:#fff;opacity:0.75;}</style></defs><g id="Layer_2" data-name="Layer 2"><g id="Buton_Logo_Facebook" data-name="Buton Logo Facebook"><path class="cls-1" d="M12.41,11h2.15c.06,0,.16-.06.17-.11l.33-2.53,0-.06H12.41a1.86,1.86,0,0,1,0-.22q0-.74,0-1.47V6.37a1,1,0,0,1,1.12-1.12c.47,0,.93,0,1.39,0h.25V3.12c0-.3,0-.33-.3-.33a21,21,0,0,0-2.38,0,3.06,3.06,0,0,0-2.85,2.9c-.06.78,0,1.56,0,2.35v.26H7.27V11h2.3v7H9.38c-2,0-4,0-6,0A3.37,3.37,0,0,1,.08,15.32,4.43,4.43,0,0,1,0,14.51c0-3.7,0-7.39,0-11.08A3.39,3.39,0,0,1,2.63.08,4.67,4.67,0,0,1,3.46,0h11a3.34,3.34,0,0,1,3.35,2.54,3.69,3.69,0,0,1,.1.87c0,3.71,0,7.41,0,11.12a3.35,3.35,0,0,1-2.77,3.36,7.17,7.17,0,0,1-1,.06c-.57,0-1.15,0-1.74,0Z"/></g></g></svg>