<svg xmlns="http://www.w3.org/2000/svg" viewBox="0 0 18.9 18.9"><defs><style>.cls-1{opacity:0.75;}.cls-2{fill:#fff;}</style></defs><g id="Layer_2" data-name="Layer 2"><g id="Buton_logo_Instagram" data-name="Buton logo Instagram"><g class="cls-1"><path class="cls-2" d="M18.9,9.46c0,1.78,0,3.55,0,5.33a4.19,4.19,0,0,1-3.34,4,5.25,5.25,0,0,1-.88.09H4.22a4.19,4.19,0,0,1-4.1-3.21A3.65,3.65,0,0,1,0,14.76V4.11a4.19,4.19,0,0,1,3.34-4A4.45,4.45,0,0,1,4.15,0H14.76a4.18,4.18,0,0,1,4.07,3.45,5.14,5.14,0,0,1,.07.78V9.46Zm-2.34,0h0c0-.65,0-1.31,0-2a12.56,12.56,0,0,0-.11-1.73,4,4,0,0,0-.56-1.6,3.81,3.81,0,0,0-2.77-1.73,10.58,10.58,0,0,0-1.69-.1H8a18.44,18.44,0,0,0-2.1.09,4.2,4.2,0,0,0-1.55.49A3.68,3.68,0,0,0,2.43,5.64a8.67,8.67,0,0,0-.12,1.61c0,1.61,0,3.21,0,4.82a6.49,6.49,0,0,0,.18,1.58A3.66,3.66,0,0,0,4.25,16a4.55,4.55,0,0,0,2.16.57c.66,0,1.32,0,2,0l3.63,0a6.64,6.64,0,0,0,1.48-.16,3.66,3.66,0,0,0,2.83-2.61A6.17,6.17,0,0,0,16.56,12C16.57,11.17,16.56,10.31,16.56,9.44Z"/><path class="cls-2" d="M3.57,9.44c0-.82,0-1.64,0-2.45a6.58,6.58,0,0,1,.14-1.4A2.4,2.4,0,0,1,5.79,3.71,7.47,7.47,0,0,1,7,3.6c1.11,0,2.21,0,3.32,0,.68,0,1.36,0,2,0a3.88,3.88,0,0,1,1.35.24,2.39,2.39,0,0,1,1.47,1.69,4.08,4.08,0,0,1,.14,1c0,1.12,0,2.25,0,3.37,0,.66,0,1.32,0,2a6.17,6.17,0,0,1-.15,1.42,2.42,2.42,0,0,1-2,1.88,6.41,6.41,0,0,1-1.16.1c-1.11,0-2.21,0-3.32,0l-2,0A3.83,3.83,0,0,1,5.23,15a2.38,2.38,0,0,1-1.49-1.77,6.13,6.13,0,0,1-.14-1.35C3.58,11.08,3.58,10.26,3.57,9.44Zm9.54,0a3.67,3.67,0,1,0-3.67,3.67A3.66,3.66,0,0,0,13.11,9.44Zm1-3.8a.85.85,0,0,0-.85-.86.86.86,0,1,0,.85.86Z"/><path class="cls-2" d="M11.83,9.45a2.39,2.39,0,1,1-2.36-2.4A2.39,2.39,0,0,1,11.83,9.45Z"/></g></g></g></svg>