<svg xmlns="http://www.w3.org/2000/svg" viewBox="0 0 101.99 63.16"><defs><style>.cls-1{font-size:17.64px;font-family:SFCompactDisplay-Heavy, SF Compact Display;font-weight:800;}.cls-1,.cls-12,.cls-7{fill:#fff;}.cls-2{letter-spacing:-0.03em;}.cls-3{letter-spacing:0em;}.cls-4{letter-spacing:0em;}.cls-5{fill:none;}.cls-6{fill:#3b8e98;}.cls-8{fill:#e83c4c;}.cls-9{fill:#d9a625;}.cls-10{fill:#07797e;}.cls-11{fill:#006d6e;}.cls-12{font-size:9.38px;font-family:SFCompactDisplay-Thin, SF Compact Display;font-weight:200;}</style></defs><g id="Layer_2" data-name="Layer 2"><g id="Logo_VLC_Footer" data-name="Logo VLC Footer"><text class="cls-1" transform="translate(25.13 50.73) scale(1.13 1)"><tspan class="cls-2">V</tspan><tspan x="10.83" y="0">a</tspan><tspan class="cls-3" x="20.69" y="0">c</tspan><tspan x="30.21" y="0">a</tspan><tspan class="cls-4" x="40.07" y="0">nț</tspan><tspan x="57.99" y="0">ă</tspan></text><path class="cls-5" d="M18.07,30.5c0,.28,0,.3.3.3h1.89c.35,0,.35,0,.35-.35V23.1c0-.15,0-.23.18-.28a3.93,3.93,0,0,0,.62-.3,3.67,3.67,0,0,0,1-5.57,4.27,4.27,0,0,0-6.06-.36A3.62,3.62,0,0,0,16,21.64,4.1,4.1,0,0,0,18.07,23V30.5Z"/><path class="cls-6" d="M35.59,19c-3-2-3.49-1.62-5.46-4.65s-4.42-5-7.21-4.76a64.41,64.41,0,0,0-9.52,1.6c1.07.11,1.86.2,1.95.23.25.07,2.19.71,2.4,1.29a4,4,0,0,1-.14,2c-.14.79-2.15,1.54-2.87,1.65l-1.21.12c-.19.39-.34.8-.54,1.19a3.41,3.41,0,0,1-.45.69A5.74,5.74,0,0,1,10,19.62c-.88.3-1.78.57-2.68.79-1.53.38-1.44.67-3.16,1.72A21.11,21.11,0,0,1,.44,23.61a44.17,44.17,0,0,0,1.17,4.8c.21.71.44,1.4.69,2.09a3.15,3.15,0,0,0,1-1c.47-.93,2.44-3.61,3.72-4.19a9.66,9.66,0,0,1,4.36-1.1c1.86,0,2.15-.24,3.49.58s2.56,1.51,2.85,1.63l.32.14V23A4.1,4.1,0,0,1,16,21.64a3.62,3.62,0,0,1,.37-5.05,4.27,4.27,0,0,1,6.06.36,3.67,3.67,0,0,1-1,5.57,3.93,3.93,0,0,1-.62.3c-.15.05-.18.13-.18.28v4.25C24,24.44,26,22.54,26,22.54a5.87,5.87,0,0,1,2.73-1,7.73,7.73,0,0,1,4,2.33c.51.64,1.73,2.79,2.91,4.72l.12-.44a44.54,44.54,0,0,0,1.4-7.75c0-.32,0-.64.06-1A2.9,2.9,0,0,1,35.59,19Z"/><path class="cls-6" d="M5.17,5.76A18.78,18.78,0,0,0,3,8.44L5,8.8A7.79,7.79,0,0,1,7.11,7.72C10.83,6.44,15,6,16.41,4.7s6.28-2.33,8.49-1.52S24.08,5.16,29,6a35,35,0,0,0,3.69.42,18,18,0,0,0-5-4A23.11,23.11,0,0,0,21.11.14c-.34-.07-.69-.07-1-.11A.45.45,0,0,1,20,0H18L16.93.12A19.27,19.27,0,0,0,5.17,5.76Z"/><path class="cls-6" d="M21.13,55.7l.3-.42-.54.33Z"/><path class="cls-6" d="M3.52,21.27C3.81,21,5.91,20,6.3,19.65s2-2.2,2-2.2l.47-.23c-.95.39-2.13,1-3.3,1.54A11.14,11.14,0,0,1,0,19.65v.43c0,.22.05.44.07.66,0,.66.12,1.31.22,2l.27-.09A14.54,14.54,0,0,0,3.52,21.27Z"/><path class="cls-6" d="M9.88,16.84a5,5,0,0,1-.76,1.37,5,5,0,0,1-.56.66c-.09.1-.31.37-.44.39a4.44,4.44,0,0,0,1.24-.38,22.35,22.35,0,0,0,2.2-1.34,4.45,4.45,0,0,0,.74-1c-.81.06-1.61.12-2,.17Z"/><path class="cls-7" d="M18.07,29.54v-3l-.32-.14c-.29-.12-1.51-.82-2.85-1.63s-1.63-.58-3.49-.58a9.66,9.66,0,0,0-4.36,1.1c-1.28.58-3.25,3.26-3.72,4.19a3.15,3.15,0,0,1-1,1,50.38,50.38,0,0,0,2.25,5.24c.51,1,1,2,1.57,3A61.12,61.12,0,0,0,12,34.57C14.21,32.78,16.26,31.07,18.07,29.54Z"/><path class="cls-8" d="M35.65,28.6a60.24,60.24,0,0,1-4.88,11.91l-.21.39-.71-2.29-5.51.06,1.84,5.55a1.08,1.08,0,0,0-.8.48c-.44.71-.06,1.81-3.32,1.55a13.55,13.55,0,0,0-4.62.62c-1.29-.31-2.3-.56-2.69-.67L9.5,44.7c-1.17-1.94-2.31-3.91-3.38-5.91A63.19,63.19,0,0,0,12,34.57c2.22-1.79,4.27-3.5,6.08-5v1c0,.28,0,.3.3.3h1.89c.35,0,.35,0,.35-.35v-3.1C24,24.44,26,22.54,26,22.54a5.87,5.87,0,0,1,2.73-1,7.73,7.73,0,0,1,4,2.33C33.25,24.51,34.47,26.67,35.65,28.6Z"/><path class="cls-8" d="M25.84,48.89l0,0-.08,0Z"/><path class="cls-9" d="M19.78,49.87a2.45,2.45,0,0,0-1.74.34s-3.41.68-3.78-.07-.91-1.42-.17-1.91a15.57,15.57,0,0,1,3.35-1.36c-1.29-.31-2.3-.56-2.69-.67L9.5,44.7c1.08,1.79,2.19,3.55,3.33,5.31.67,1,1.35,2.07,2,3.1,1.85.81,4,1.71,6,2.5l.54-.33.35-.48q2.13-2.89,4.06-5.91h-.05A19.48,19.48,0,0,1,19.78,49.87Z"/><path class="cls-7" d="M24.9,3.18c-2.21-.81-7.09.24-8.49,1.52s-5.58,1.74-9.3,3A7.79,7.79,0,0,0,5,8.8c3,.51,6.45,1.13,6.5,1.2a3.14,3.14,0,0,1,.51,1.05l1.35.13a64.41,64.41,0,0,1,9.52-1.6c2.79-.23,5.23,1.74,7.21,4.76S32.57,17,35.59,19a2.9,2.9,0,0,0,1.64.46v-.11c0-.06,0-.12,0-.18V17.9c0-.31-.06-.62-.08-.93A17,17,0,0,0,35,9.71C34.21,9.22,33.73,9,33.73,9l-1.68-.06-1.34.46.79-.6a23.06,23.06,0,0,1,2-1.35c-.28-.37-.57-.72-.87-1.06A35,35,0,0,1,29,6C24.08,5.16,27.11,4,24.9,3.18Z"/><path class="cls-10" d="M14.87,53.11q1.71,2.56,3.54,5l.46.62h0l2.22-3.08-.24-.09C18.82,54.82,16.72,53.92,14.87,53.11Z"/><path class="cls-10" d="M27.08,46.92c-.4.65-.8,1.29-1.21,1.93l-.08,0a19.44,19.44,0,0,1-6,1,2.45,2.45,0,0,0-1.74.34s-3.41.68-3.78-.07-.91-1.42-.17-1.91a15.57,15.57,0,0,1,3.35-1.36,13.55,13.55,0,0,1,4.62-.62c3.26.26,2.88-.84,3.32-1.55a1.08,1.08,0,0,1,.8-.48Z"/><path class="cls-9" d="M30.71,9.4l1.34-.46L33.73,9s.48.22,1.31.71c-.15-.26-.3-.52-.47-.77-.33-.52-.67-1-1-1.49a23.06,23.06,0,0,0-2,1.35Z"/><path class="cls-9" d="M7.35,20.41c.9-.22,1.8-.49,2.68-.79a5.74,5.74,0,0,0,2.51-1.26,3.41,3.41,0,0,0,.45-.69c.2-.39.35-.8.54-1.19l-1.23.1a4.45,4.45,0,0,1-.74,1,22.35,22.35,0,0,1-2.2,1.34,4.44,4.44,0,0,1-1.24.38c.13,0,.35-.29.44-.39a5,5,0,0,0,.56-.66,5,5,0,0,0,.76-1.37,9.13,9.13,0,0,0-1.1.38l-.47.23s-1.63,1.81-2,2.2S3.81,21,3.52,21.27a14.54,14.54,0,0,1-3,1.34l-.27.09c0,.3.09.61.15.91a21.11,21.11,0,0,0,3.75-1.48C5.91,21.08,5.82,20.79,7.35,20.41Z"/><path class="cls-11" d="M5.48,18.76c1.17-.58,2.35-1.15,3.3-1.54a9.13,9.13,0,0,1,1.1-.38l.41-.09c.4-.05,1.2-.11,2-.17l1.23-.1,1.21-.12c.72-.11,2.73-.86,2.87-1.65a4,4,0,0,0,.14-2c-.21-.58-2.15-1.22-2.4-1.29-.09,0-.88-.12-1.95-.23l-1.35-.13a1.63,1.63,0,0,1,.06.45c0,.76-.72,1-1.4,1.51a19.45,19.45,0,0,1-5.2,1.58A30.67,30.67,0,0,0,.38,16.24a.75.75,0,0,0-.18.09c-.05.49-.1,1-.17,1.47a.58.58,0,0,1,0,.14v1.71A11.14,11.14,0,0,0,5.48,18.76Z"/><path class="cls-8" d="M5.51,14.59A19.45,19.45,0,0,0,10.71,13c.68-.47,1.4-.75,1.4-1.51a1.63,1.63,0,0,0-.06-.45A3.14,3.14,0,0,0,11.54,10c0-.07-3.54-.69-6.5-1.2L3,8.44A18,18,0,0,0,.43,14.79c-.1.51-.17,1-.23,1.54a.75.75,0,0,1,.18-.09A30.67,30.67,0,0,1,5.51,14.59Z"/><text class="cls-12" transform="translate(27.99 58.3) scale(1.36 1)">la cheie</text></g></g></svg>