<svg xmlns="http://www.w3.org/2000/svg" viewBox="0 0 31.59 21.88"><defs><style>.cls-1{fill:#fff;}</style></defs><g id="Layer_2" data-name="Layer 2"><g id="Footer_Logo_buton_mail" data-name="Footer Logo buton mail"><path class="cls-1" d="M15.79,0h13.3a2.28,2.28,0,0,1,2.49,2.47q0,8.47,0,16.94a2.28,2.28,0,0,1-2.49,2.47H2.49A2.29,2.29,0,0,1,0,19.4V2.47A2.28,2.28,0,0,1,2.49,0ZM1.42.86l0,.19a1.79,1.79,0,0,1,.28.2Q7,6.1,12.41,11a4.9,4.9,0,0,0,6.75,0l9.21-8.32L30.19,1V.87a6,6,0,0,0-1-.19Q15.79.67,2.4.68A5.45,5.45,0,0,0,1.42.86Zm29.3,19.46L30.37,20,19.12,11.93a.47.47,0,0,0-.59,0,5.1,5.1,0,0,1-5.42,0,.56.56,0,0,0-.73,0L1.2,20.05l-.34.28a1.77,1.77,0,0,0,1.7.87H29.44A1.6,1.6,0,0,0,30.72,20.32Zm-.06-19H30.5L19.18,11.49l11.68,8.4c0-.21,0-.34,0-.47,0-5.69,0-11.38,0-17.07A4.94,4.94,0,0,0,30.66,1.3ZM1.09,1.3H.92A5.53,5.53,0,0,0,.69,2.43q0,8.46,0,16.93c0,.15,0,.31,0,.53l11.68-8.4Z"/></g></g></svg>