<svg xmlns="http://www.w3.org/2000/svg" viewBox="0 0 26.87 18.58"><defs><style>.cls-1{fill:#fff;opacity:0.75;}</style></defs><g id="Layer_2" data-name="Layer 2"><g id="Buton_Logo_Youtube" data-name="Buton Logo Youtube"><path class="cls-1" d="M14.48,0l2.17,0c.56,0,1.12,0,1.67,0L20,.1l.95,0c.39,0,.77,0,1.16,0s.79.11,1.18.17a3.66,3.66,0,0,1,.78.18,3.19,3.19,0,0,1,1.85,1.59,5.66,5.66,0,0,1,.51,1.5,14.39,14.39,0,0,1,.24,1.73c0,.42.07.85.1,1.28s0,.81.06,1.21c0,.6,0,1.2,0,1.8,0,.43,0,.87,0,1.31s-.06,1-.11,1.54-.15,1.19-.23,1.78a8.6,8.6,0,0,1-.27,1.34,4.61,4.61,0,0,1-.5,1.21A2.8,2.8,0,0,1,24,18.09a4.2,4.2,0,0,1-.79.13l-1.35.1-.67,0-1,.06-.85,0-.95,0-.72,0-1.54,0h-2l-1.79-.05-1.53,0-1.38,0L8,18.45l-1.82,0c-.38,0-.77,0-1.15-.05a13.64,13.64,0,0,1-1.92-.26,3.13,3.13,0,0,1-1.63-.89,3.46,3.46,0,0,1-.72-1.13A6.67,6.67,0,0,1,.37,14.7c-.09-.53-.15-1.07-.19-1.61S.1,12.25.07,11.83s0-1-.06-1.44c0-.66,0-1.32,0-2C0,8,0,7.66.05,7.29s.06-.92.09-1.38.07-.73.12-1.1.14-1,.22-1.56A3.6,3.6,0,0,1,1,1.74,3,3,0,0,1,2.75.48a3.52,3.52,0,0,1,1-.16l1-.07L6.18.17,7.38.12,9.18.06l1.37,0,2.17,0ZM10.79,5.32V13.2c.08,0,6.8-3.89,6.85-3.94Z"/></g></g></svg>